<?xml version="1.0" encoding="UTF-8"?>
<svg width="212px" height="212px" viewBox="0 0 212 212" version="1.1" xmlns="http://www.w3.org/2000/svg" xmlns:xlink="http://www.w3.org/1999/xlink">
    <!-- Generator: Sketch 3.8.1 (29687) - http://www.bohemiancoding.com/sketch -->
    <title>audio</title>
    <desc>Created with Sketch.</desc>
    <defs></defs>
    <g id="Welcome" stroke="none" stroke-width="1" fill="none" fill-rule="evenodd" fill-opacity="0.7">
        <g id="audio" fill="#000000">
            <path d="M211.324537,48.5624063 C211.324537,43.2576467 207.023531,38.9566404 201.718771,38.9566404 C196.414012,38.9566404 192.113005,43.2576467 192.113005,48.5624063 L192.11486,115.268266 L172.903324,115.268266 L172.901473,32.0192199 C172.901473,26.7144603 168.600467,22.4134539 163.295707,22.4134539 C157.990948,22.4134539 153.689941,26.7144603 153.689941,32.0192199 L153.691789,115.268266 L134.480254,115.268266 L134.479335,60.836055 C134.479335,55.5312954 130.178792,51.230289 124.873569,51.230289 C119.56881,51.230289 115.267803,55.5312954 115.267803,60.836055 L115.268725,115.268266 L96.0571969,115.268266 L96.0562713,9.60576596 C96.0562713,4.30100635 91.7557277,0 86.4505053,0 C81.1452829,0 76.8447394,4.30100635 76.8447394,9.60576596 L76.8456629,115.268266 L57.6345935,115.268266 L57.6336702,96.056734 L57.6336702,48.028367 C57.6336702,42.7236074 53.3326639,38.4226011 48.0279042,38.4226011 C42.7231446,38.4226011 38.4221383,42.7236074 38.4221383,48.028367 L38.4230652,115.268266 L19.2119958,115.268266 L19.2115319,67.2398989 C19.2115319,61.9351393 14.9105256,57.634133 9.60576596,57.634133 C4.30100635,57.634133 1.64409771e-15,61.9346766 1.64409771e-15,67.2398989 L0.000462772364,144.085101 C0.000462772364,149.389861 4.30146912,153.690867 9.60622873,153.690867 C14.9109883,153.690867 19.2119947,149.389861 19.2119947,144.085101 L19.2119947,115.268266 L38.4230638,115.268266 L38.4230638,163.296633 C38.4230638,168.601393 42.7240702,172.902399 48.0288298,172.902399 C53.3335894,172.902399 57.6345958,168.601393 57.6345958,163.296633 L57.6345958,115.268266 L76.8456649,115.268266 L76.8456649,201.719234 C76.8456649,207.023994 81.1466712,211.325 86.4514309,211.325 C91.7561905,211.325 96.0571968,207.023994 96.0571968,201.719234 L96.0571968,115.268266 L115.268729,115.268266 L115.268729,150.488945 C115.268729,155.793705 119.569272,160.094711 124.874495,160.094711 C130.179254,160.094711 134.480261,155.793705 134.480261,150.488945 L134.480261,115.268266 L153.691793,115.268266 L153.691793,179.30578 C153.691793,184.61054 157.992336,188.911546 163.297559,188.911546 C168.602781,188.911546 172.903324,184.61054 172.903324,179.30578 L172.903324,115.268266 L192.114856,115.268266 L192.114856,163.830672 C192.114856,169.135432 196.4154,173.436438 201.720622,173.436438 C207.025845,173.436438 211.326388,169.135432 211.326388,163.830672 L211.324537,48.5624063 Z" id="Audio"></path>
        </g>
    </g>
</svg>