<?xml version="1.0" encoding="UTF-8"?>
<svg width="99px" height="198px" viewBox="0 0 99 198" version="1.1" xmlns="http://www.w3.org/2000/svg" xmlns:xlink="http://www.w3.org/1999/xlink">
    <!-- Generator: Sketch 3.8.1 (29687) - http://www.bohemiancoding.com/sketch -->
    <title>charge</title>
    <desc>Created with Sketch.</desc>
    <defs></defs>
    <g id="Welcome" stroke="none" stroke-width="1" fill="none" fill-rule="evenodd" fill-opacity="0.696756114">
        <g id="charge" fill="#000000">
            <path d="M74.084755,80.2913074 L74.084755,6.61805616 C74.1650151,5.00730563 73.6587592,3.42753107 72.6277258,2.15751623 C70.275488,-0.735639532 64.8239761,-0.710858754 62.4902598,2.18229701 C62.3297396,2.38054323 62.1815671,2.59117983 62.0457424,2.82040202 L0.924601286,101.813413 C-0.254604568,103.727728 -0.310169242,106.125268 0.782602675,108.089144 C1.86920074,110.053021 3.93126752,111.267279 6.17237603,111.267279 L30.8677866,111.267279 L30.8801343,191.364947 C30.892482,192.820818 31.3616948,194.332445 32.2136864,195.43519 C33.3805446,196.965403 35.4796545,198 37.3997227,198 C39.2827477,198 41.3262929,197.008769 42.4931511,195.534313 C42.7401052,195.224553 42.9500162,194.896208 43.1352318,194.549277 L98.0763464,89.3610719 C99.0826844,87.4405616 99.0085981,85.1359493 97.8911308,83.2835862 C96.7736635,81.4312231 94.7671614,80.2913074 92.6063129,80.2913074 L74.084755,80.2913074 Z" id="Charge"></path>
        </g>
    </g>
</svg>