<?xml version="1.0" encoding="UTF-8"?>
<svg width="123px" height="180px" viewBox="0 0 123 180" version="1.1" xmlns="http://www.w3.org/2000/svg" xmlns:xlink="http://www.w3.org/1999/xlink">
    <!-- Generator: Sketch 3.8.1 (29687) - http://www.bohemiancoding.com/sketch -->
    <title>drop</title>
    <desc>Created with Sketch.</desc>
    <defs></defs>
    <g id="Welcome" stroke="none" stroke-width="1" fill="none" fill-rule="evenodd" fill-opacity="0.699999988">
        <g id="drop" fill="#000000">
            <path d="M101.986502,72.1910886 C84.5450212,49.4278473 67.9894536,34.0552688 66.5118041,3.90136485 C66.5118041,3.01448532 66.2161776,2.4232323 65.6249246,1.83197929 C65.329298,0.353846738 63.8511655,-0.53303279 62.3730329,0.353846738 C60.5992739,0.353846738 59.1216244,1.53635278 59.1216244,3.60573834 C21.8726842,43.8109436 -41.0957623,145.802089 38.1321422,175.068631 C73.9029499,188.372307 114.403782,170.33909 121.498818,131.315907 C125.341479,110.326908 114.402816,88.1554031 101.986502,72.1910886 L101.986502,72.1910886 Z M38.4272857,156.149017 C29.8541169,151.123367 24.5328397,141.072548 21.8722011,132.20327 C20.6896951,127.768872 20.0984421,123.334958 20.3940686,118.90056 C22.1678277,111.214271 24.5328397,103.823125 27.1934783,96.4329454 C28.6716109,102.936246 31.627876,109.440512 35.7666471,114.170053 C45.2266954,124.517947 64.4424185,130.72562 69.7636957,143.733187 C73.0155873,151.71462 60.3036474,158.514512 54.9823702,160.287788 C49.3654665,162.061547 43.1568268,159.105765 38.4272857,156.149017 L38.4272857,156.149017 Z" id="Drop"></path>
        </g>
    </g>
</svg>