<?xml version="1.0" encoding="UTF-8"?>
<svg width="253px" height="99px" viewBox="0 0 253 99" version="1.1" xmlns="http://www.w3.org/2000/svg" xmlns:xlink="http://www.w3.org/1999/xlink">
    <!-- Generator: Sketch 3.8.1 (29687) - http://www.bohemiancoding.com/sketch -->
    <title>feather</title>
    <desc>Created with Sketch.</desc>
    <defs></defs>
    <g id="Welcome" stroke="none" stroke-width="1" fill="none" fill-rule="evenodd" fill-opacity="0.698709239">
        <g id="feather" fill="#000000">
            <path d="M119.235371,142.074703 C120.879666,141.610698 122.220267,129.280241 135.013132,128.288043 C135.013132,128.288043 138.710481,113.218903 138.710481,107.393136 C138.710481,101.563856 133.450269,91.0437517 133.450269,90.4750025 C133.450269,89.906892 129.186087,81.2354624 143.826669,55.2227705 C158.466932,29.2100786 158.466932,26.7952097 158.466932,21.9603624 C154.629711,29.637359 144.395099,35.3232544 144.395099,35.3232544 C144.395099,35.3232544 182.204307,-12.7224817 174.672612,-24.3788068 C172.68151,-14.4287294 164.082572,-10.8035519 164.082572,-10.8035519 C187.039474,-45.5566514 168.559436,-77.255558 168.559436,-77.255558 C168.559436,-77.255558 111.417225,-63.0412986 108.573799,-12.1521358 C106.713628,-15.7441016 101.750724,-18.9758489 101.750724,-18.9758489 C101.750724,-18.9758489 79.2903995,5.75595973 77.3015336,77.1149846 C77.3015336,77.1149846 75.0990276,120.54143 101.182933,146.626612 C101.182933,146.626612 104.453321,151.599416 105.873118,152.026377 C107.292596,152.453338 110.280366,158.139553 110.280366,158.139553 C110.280366,158.139553 110.009882,161.017788 113.245142,162.794291 L118.74518,175.197239 C118.74518,175.197239 125.084131,176.249792 126.137323,175.197239 C127.189877,174.144685 123.613878,167.481921 120.984092,161.824128 C120.878708,158.862225 118.241577,152.453338 118.241577,152.453338 C118.241577,152.453338 117.824835,142.473562 119.235371,142.074703 L119.235371,142.074703 Z M110.802491,134.304458 C85.1669424,56.5595387 150.953439,-42.7790093 150.953439,-42.7790093 C141.981827,-12.0014061 97.932025,41.2742041 110.802491,134.304458 L110.802491,134.304458 Z" id="Feather" transform="translate(126.460299, 49.204741) scale(-1, 1) rotate(-90.000000) translate(-126.460299, -49.204741) "></path>
        </g>
    </g>
</svg>