<?xml version="1.0" encoding="UTF-8"?>
<svg width="302px" height="91px" viewBox="0 0 302 91" version="1.1" xmlns="http://www.w3.org/2000/svg" xmlns:xlink="http://www.w3.org/1999/xlink">
    <!-- Generator: Sketch 3.8.1 (29687) - http://www.bohemiancoding.com/sketch -->
    <title>feather</title>
    <desc>Created with Sketch.</desc>
    <defs></defs>
    <g id="Welcome" stroke="none" stroke-width="1" fill="none" fill-rule="evenodd" fill-opacity="0.7">
        <g id="feather" fill="#000000">
            <path d="M160.346594,9.61634018 L141.216497,9.61634018 C96.8958037,-2.50465794 35.3949132,-1.4506581 3.14251825,3.55584112 C-0.862681132,4.55714096 -0.862681132,21.6846383 2.1412184,22.6859381 C8.20171746,25.6898377 11.205617,31.7503367 11.205617,31.7503367 C11.205617,31.7503367 13.2082167,37.8108358 18.2674159,59.9448324 C23.2739151,82.1842289 36.3962131,86.2421283 36.3962131,86.2421283 C36.3962131,86.2421283 52.5224106,90.2473277 70.6512078,90.2473277 C88.7800049,90.2473277 99.8997032,89.2465548 111.968001,83.1860557 C124.036299,77.1255567 129.095499,60.9988322 129.095499,60.9988322 C129.095499,60.9988322 135.155998,46.8752344 139.161197,33.8056364 C140.162497,29.7477371 160.346594,29.7477371 161.347894,33.8056364 C165.35362,46.9279344 171.414119,60.9988322 171.414119,60.9988322 C171.414119,60.9988322 176.473318,77.1255567 188.541616,83.1860557 C200.662615,89.2465548 211.729613,90.2473277 229.857883,90.2473277 C247.98668,90.2473277 264.112878,86.2421283 264.112878,86.2421283 C264.112878,86.2421283 277.235176,83.2382287 282.241675,60.0502323 C287.300874,36.8622359 289.303474,31.8557367 289.303474,31.8557367 C289.303474,31.8557367 292.306846,25.7952377 298.367345,22.7913381 C302.478472,21.7373383 302.478472,3.55584112 298.420572,3.55584112 C266.168177,-1.50335809 204.667287,-2.50465794 160.346594,9.61634018 Z" id="Glasses"></path>
        </g>
    </g>
</svg>